<svg width="163" height="40" viewBox="0 0 163 40" fill="none" xmlns="http://www.w3.org/2000/svg">
<path fill-rule="evenodd" clip-rule="evenodd" d="M65.2793 17.2776C64.2114 17.4935 63.5304 17.8657 62.7399 18.665C61.5977 19.8201 61.1 21.2498 61.2912 22.8271C61.4412 24.0651 61.8442 24.9062 62.7122 25.7936C63.3282 26.4233 63.8177 26.7486 64.5275 26.9999C67.2891 27.9778 70.2286 26.3782 70.9807 23.4885C71.1658 22.7766 71.1483 21.5421 70.9432 20.8643C70.4038 19.0816 69.1253 17.8041 67.4301 17.3538C66.8321 17.195 65.8583 17.1605 65.2793 17.2776ZM75.8427 17.2833C74.0676 17.6279 72.8867 18.7408 72.3781 20.5483C72.2423 21.031 72.2194 21.2766 72.2194 22.2473C72.2194 23.5482 72.3387 24.1234 72.7927 25.0102C73.6143 26.6153 75.5339 27.5074 77.6105 27.2493C79.699 26.9897 80.9927 25.8178 81.312 23.8963L81.3562 23.6304H79.9401H78.5241L78.4334 23.8868C78.2859 24.3036 77.9044 24.6789 77.5045 24.8002C76.8231 25.0071 76.3804 24.8976 75.9148 24.4069C75.4594 23.927 75.2802 23.3194 75.2779 22.2473C75.275 20.9144 75.647 20.0613 76.3801 19.72C77.0173 19.4233 77.8457 19.6716 78.2172 20.2706C78.3317 20.4551 78.4434 20.6641 78.4654 20.7351C78.5025 20.8545 78.6132 20.8643 79.9309 20.8643H81.3562L81.3104 20.5983C81.0356 19.0017 79.9907 17.8401 78.4263 17.3919C77.733 17.1934 76.5598 17.144 75.8427 17.2833ZM106.56 17.219C104.45 17.5387 103.217 18.533 103.016 20.0771L102.969 20.4387H104.361C105.745 20.4387 105.753 20.4377 105.8 20.2792C105.86 20.0762 106.159 19.7459 106.398 19.6181C106.673 19.4715 107.281 19.4188 107.619 19.5121C108.215 19.6762 108.536 20.1432 108.537 20.8452C108.538 21.211 108.635 21.1843 106.942 21.2849C106.236 21.3269 105.426 21.4116 105.142 21.4732C103.952 21.7311 103.184 22.2274 102.781 22.9982C102.574 23.3944 102.54 23.5341 102.514 24.081C102.462 25.1813 102.845 26.0103 103.673 26.5899C104.333 27.0518 104.908 27.2017 105.855 27.1593C106.994 27.1082 107.734 26.7535 108.309 25.9825L108.538 25.6762V26.3909V27.1057H110.032H111.526L111.506 23.3644L111.486 19.6231L111.283 19.1976C110.869 18.3321 109.927 17.629 108.814 17.3554C108.365 17.2448 106.954 17.1595 106.56 17.219ZM127.654 17.2502C125.844 17.5413 124.55 18.688 124.018 20.4733C123.871 20.9657 123.847 21.1885 123.842 22.1409C123.835 23.4565 123.95 24.0597 124.373 24.9233C124.868 25.9352 125.817 26.7323 126.923 27.065C128.27 27.4699 130.115 27.2927 131.177 26.6565C132.103 26.102 132.765 25.0839 132.927 23.9673L132.975 23.6304L131.563 23.6307L130.15 23.6309L130.023 23.9468C129.632 24.9168 128.422 25.2042 127.633 24.514C126.642 23.6468 126.635 20.8932 127.622 19.9816C128.019 19.6155 128.535 19.5044 129.099 19.6643C129.431 19.7586 129.929 20.2553 130.042 20.6051L130.126 20.8643H131.55H132.975L132.929 20.5983C132.65 18.9759 131.542 17.7727 129.942 17.3529C129.422 17.2166 128.203 17.1619 127.654 17.2502ZM157.259 17.2549C156.249 17.4269 155.306 17.933 154.571 18.697C154.001 19.2908 153.633 19.9022 153.376 20.687C153.212 21.188 153.189 21.3664 153.187 22.2119C153.184 23.021 153.209 23.2518 153.346 23.7013C153.868 25.4174 155.184 26.6961 156.896 27.1494C157.498 27.3089 158.658 27.3107 159.255 27.1531C159.85 26.9958 160.72 26.551 161.214 26.1506C162.324 25.2513 163.003 23.7626 163 22.2334C162.998 21.1261 162.732 20.2563 162.109 19.3183C161.087 17.7795 159.112 16.9394 157.259 17.2549ZM55.8867 17.3227C55.0719 17.4706 54.3116 17.9962 53.868 18.7183L53.6607 19.0557L53.6594 18.2223L53.6581 17.389H52.0971H50.536V23.809V30.2291L52.0797 30.21L53.6234 30.1909L53.6581 27.8149L53.6928 25.439L53.8831 25.7699C54.2401 26.3907 54.7266 26.7815 55.4544 27.0321C56.0242 27.2284 57.1446 27.2334 57.7452 27.0422C59.2785 26.5544 60.1814 25.0311 60.296 22.7385C60.4351 19.9556 59.4978 18.01 57.7501 17.4539C57.2396 17.2916 56.3886 17.2316 55.8867 17.3227ZM97.0291 17.3233C96.2181 17.4693 95.5088 17.9439 95.0614 18.6401L94.7658 19.1L94.7463 18.2445L94.7268 17.389H93.2026H91.6784V23.8077V30.2264H93.2048H94.7311V27.8504C94.7311 26.5436 94.7545 25.4764 94.7832 25.4789C94.8118 25.4813 94.9601 25.6804 95.1127 25.9212C95.6462 26.7631 96.5038 27.178 97.7044 27.1749C98.842 27.1719 99.4866 26.9237 100.184 26.2201C100.689 25.7106 101.037 25.0238 101.264 24.0885C101.488 23.1675 101.488 21.3263 101.264 20.4033C100.792 18.4613 99.6708 17.4066 97.9573 17.2929C97.652 17.2727 97.2343 17.2863 97.0291 17.3233ZM39.7127 22.2473V27.1057H41.2391H42.7654V23.4176V19.7295H44.2918H45.8182V23.4189V27.1084L47.3619 27.0893L48.9056 27.0702L48.9234 22.2296L48.9412 17.389H44.327H39.7127V22.2473ZM81.9652 18.5592V19.7295H83.3181H84.671V23.4176V27.1057H86.1974H87.7237V23.4176V19.7295H89.0766H90.4296V18.5592V17.389H86.1974H81.9652V18.5592ZM113.186 22.2473V27.1057H114.711H116.237L116.255 25.2084L116.274 23.3112L117.817 23.2921L119.361 23.273V25.1907V27.1084L120.905 27.0893L122.448 27.0702L122.466 22.2296L122.484 17.389H120.923H119.361V19.1989V21.0088L117.817 20.9898L116.274 20.9707L116.255 19.1798L116.237 17.389H114.711H113.186V22.2473ZM133.584 18.5592V19.7295H134.936H136.289L136.307 23.3999L136.324 27.0702L137.834 27.0894L139.343 27.1085V23.419V19.7295H140.73H142.118V18.5592V17.389H137.851H133.584V18.5592ZM143.314 22.2244L143.332 27.0702L146.315 27.0673C148.892 27.0647 149.363 27.0478 149.771 26.9431C151.206 26.5752 152.017 25.7262 152.094 24.5118C152.134 23.8753 152.032 23.4609 151.728 23.0244C151.423 22.5849 151.014 22.2959 150.423 22.0999C150.148 22.009 149.97 21.9328 150.027 21.9307C150.256 21.9221 150.865 21.5684 151.129 21.2903C151.523 20.875 151.711 20.3287 151.679 19.694C151.626 18.6378 150.98 17.911 149.779 17.5558C149.426 17.4515 148.937 17.4302 146.332 17.4063L143.296 17.3785L143.314 22.2244ZM148.197 19.4322C148.688 19.6882 148.848 20.2746 148.552 20.7297C148.305 21.1079 147.978 21.231 147.107 21.2732L146.35 21.3099V20.2616V19.2132L147.131 19.2485C147.738 19.2759 147.976 19.3168 148.197 19.4322ZM55.8255 19.8268C56.301 19.9731 56.6127 20.2551 56.8551 20.7585C57.5445 22.1901 57.0874 24.1885 55.9697 24.6293C55.6458 24.7571 55.0301 24.7252 54.7223 24.5646C54.0171 24.1968 53.6581 23.4152 53.6581 22.2473C53.6581 21.3374 53.8393 20.7507 54.2637 20.2869C54.7204 19.7878 55.2202 19.6406 55.8255 19.8268ZM96.9914 19.8335C97.9085 20.112 98.4736 21.4018 98.2754 22.764C98.0985 23.9803 97.4673 24.7011 96.5722 24.7094C96.0627 24.714 95.7737 24.5967 95.4418 24.25C95.0802 23.8724 94.8922 23.4406 94.8 22.7751C94.6093 21.4011 95.1521 20.1203 96.0441 19.8394C96.4573 19.7092 96.5793 19.7085 96.9914 19.8335ZM67.2006 20.1186C67.6861 20.3663 68.0284 20.7151 68.2686 21.2072C68.4365 21.5512 68.4651 21.6959 68.4677 22.2131C68.4705 22.7555 68.4476 22.8654 68.2438 23.2887C67.8327 24.1429 67.1305 24.5839 66.1812 24.5839C65.5023 24.5839 64.9952 24.3727 64.5468 23.9034C63.7034 23.0207 63.6583 21.6162 64.443 20.6678C64.6639 20.4008 65.1198 20.1111 65.5419 19.9696C65.9883 19.82 66.7493 19.8883 67.2006 20.1186ZM159.012 20.0759C159.485 20.2894 159.968 20.7933 160.194 21.3092C160.362 21.6909 160.378 21.7968 160.35 22.3454C160.313 23.1003 160.117 23.5329 159.599 24.0096C159.215 24.3626 158.57 24.6233 158.08 24.6233C157.162 24.6233 156.25 23.968 155.918 23.0686C155.715 22.5175 155.755 21.6899 156.01 21.1806C156.189 20.8248 156.656 20.3246 156.972 20.1506C157.549 19.8336 158.406 19.8022 159.012 20.0759ZM108.524 23.2898C108.554 23.7663 108.428 24.1642 108.147 24.4825C107.556 25.151 106.257 25.2338 105.737 24.6362C105.554 24.426 105.511 23.9217 105.652 23.6429C105.841 23.2687 106.225 23.1238 107.289 23.0238C108.563 22.9042 108.499 22.8903 108.524 23.2898ZM148.327 23.0552C148.79 23.2736 148.942 23.4977 148.97 24.005C149 24.5547 148.841 24.8524 148.413 25.0514C148.173 25.1626 147.956 25.1879 147.235 25.1892L146.35 25.1907V24.0559V22.9211L147.2 22.9227C147.877 22.9239 148.106 22.9508 148.327 23.0552Z" fill="white"/>
<path fill-rule="evenodd" clip-rule="evenodd" d="M14.6409 8.31272C14.5516 8.32264 14.2489 8.35323 13.9682 8.38063C11.4 8.6316 8.72237 9.62886 6.58368 11.1309C4.41294 12.6554 2.779 14.5377 1.60532 16.8659C0.813914 18.4357 0.352587 19.923 0.0875014 21.7589C-0.0293145 22.5679 -0.029128 24.9106 0.087827 25.6961C0.624679 29.3016 2.08562 32.2094 4.59378 34.6643C7.02427 37.0432 9.99203 38.4958 13.494 39.0206C14.0714 39.1071 14.3477 39.1195 15.7079 39.1199C17.0941 39.1204 17.3347 39.1092 17.9347 39.0175C21.4846 38.4743 24.4129 37.0324 26.8659 34.6195C28.1092 33.3967 29.0025 32.172 29.8067 30.588C30.5865 29.0519 31.0651 27.5058 31.3277 25.6733C31.4441 24.8612 31.4433 22.568 31.3264 21.7629C30.9198 18.9639 29.935 16.582 28.3049 14.4547C25.7251 11.088 21.955 8.94357 17.6564 8.39774C17.1113 8.32851 15.027 8.26975 14.6409 8.31272ZM17.4491 15.5397C18.6044 15.7813 19.8033 16.2891 20.7181 16.9242C21.2837 17.3168 22.2308 18.2462 22.6304 18.8005C23.3496 19.7984 23.8722 21.0325 24.1001 22.2714C24.4605 24.2303 24.0216 26.4823 22.9495 28.1749C22.5737 28.7682 22.1734 29.2446 21.5812 29.8031C19.0631 32.1781 15.1748 32.7599 11.9501 31.2442C11.0463 30.8193 10.4431 30.3934 9.67434 29.6373C9.1785 29.1497 8.90984 28.8417 8.66322 28.4785C6.07569 24.6666 6.98897 19.5321 10.7207 16.9112C11.6078 16.2881 12.8505 15.7658 13.9672 15.5466C14.7466 15.3936 14.7344 15.3945 15.8703 15.4095C16.7564 15.4211 16.9645 15.4383 17.4491 15.5397Z" fill="white"/>
<circle cx="37.6382" cy="5.03818" r="5.03818" fill="#9FC8E9"/>
</svg>
